<?xml version="1.0" encoding="utf-8"?>
<!-- Generator: Adobe Illustrator 16.0.0, SVG Export Plug-In . SVG Version: 6.00 Build 0)  -->
<!DOCTYPE svg PUBLIC "-//W3C//DTD SVG 1.1//EN" "http://www.w3.org/Graphics/SVG/1.1/DTD/svg11.dtd">
<svg version="1.1" id="Layer_1" xmlns="http://www.w3.org/2000/svg" xmlns:xlink="http://www.w3.org/1999/xlink" x="0px" y="0px"
	 width="25px" height="25px" viewBox="0 0 25 25" enable-background="new 0 0 25 25" xml:space="preserve">
<g>
	<path fill="#6B6B6B" d="M8.424,6.625H7.701c-0.248,0-0.451,0.203-0.451,0.451v10.848c0,0.248,0.203,0.451,0.451,0.451h0.724
		c0.248,0,0.451-0.203,0.451-0.451V7.076C8.875,6.828,8.672,6.625,8.424,6.625z"/>
	<path fill="#6B6B6B" d="M15.25,9.007C14,8.39,12.875,6.131,9.688,7.335v6.219c0,0,1.125-1.055,2.75-1.055
		c0.86,0,1.932,0.787,3.062,1.121c1.004,0.299,2.25-0.869,2.25-0.869V8.606C17.75,8.606,16.062,9.409,15.25,9.007z"/>
</g>
</svg>
