<?xml version="1.0" encoding="utf-8"?>
<!-- Generator: Adobe Illustrator 16.0.0, SVG Export Plug-In . SVG Version: 6.00 Build 0)  -->
<!DOCTYPE svg PUBLIC "-//W3C//DTD SVG 1.1//EN" "http://www.w3.org/Graphics/SVG/1.1/DTD/svg11.dtd">
<svg version="1.1" id="Layer_1" xmlns="http://www.w3.org/2000/svg" xmlns:xlink="http://www.w3.org/1999/xlink" x="0px" y="0px"
	 width="100%" height="100%" viewBox="0 0 25 25" enable-background="new 0 0 25 25" xml:space="preserve">
<path fill="#6B6B6B" d="M17.775,16.36l-2.662-2.662c0.41-0.662,0.658-1.437,0.658-2.272c0-2.396-1.949-4.347-4.346-4.347
	S7.08,9.029,7.08,11.426s1.95,4.347,4.346,4.347c0.835,0,1.61-0.249,2.273-0.66l2.662,2.662c0.193,0.194,0.512,0.194,0.707,0
	l0.707-0.707C17.969,16.873,17.969,16.555,17.775,16.36z M8.08,11.426c0-1.846,1.501-3.347,3.346-3.347s3.346,1.501,3.346,3.347
	c0,1.845-1.5,3.347-3.346,3.347S8.08,13.271,8.08,11.426z"/>
</svg>
