<?xml version="1.0" encoding="utf-8"?>
<!-- Generator: Adobe Illustrator 16.0.0, SVG Export Plug-In . SVG Version: 6.00 Build 0)  -->
<!DOCTYPE svg PUBLIC "-//W3C//DTD SVG 1.1//EN" "http://www.w3.org/Graphics/SVG/1.1/DTD/svg11.dtd">
<svg version="1.1" id="Layer_1" xmlns="http://www.w3.org/2000/svg" xmlns:xlink="http://www.w3.org/1999/xlink" x="0px" y="0px"
	 width="25px" height="25px" viewBox="0 0 25 25" enable-background="new 0 0 25 25" xml:space="preserve">
<g>
	<path fill="#6B6B6B" d="M6.363,8.548C6.112,8.735,5.928,9.151,5.928,9.426c0,2.528,0,5.056,0,7.583
		c0,0.275,0.185,0.309,0.436,0.123c1.417-1.062,3.378-1.062,4.796,0c0.251,0.186,0.436,0.152,0.436-0.123c0-2.527,0-5.055,0-7.583
		c0-0.274-0.185-0.691-0.436-0.877C9.742,7.487,7.781,7.487,6.363,8.548z"/>
	<path fill="#6B6B6B" d="M18.637,8.548c-1.417-1.062-3.378-1.062-4.796,0c-0.251,0.187-0.436,0.603-0.436,0.877
		c0,2.528,0,5.056,0,7.583c0,0.275,0.185,0.309,0.436,0.123c1.418-1.062,3.379-1.062,4.796,0c0.251,0.186,0.436,0.152,0.436-0.123
		c0-2.527,0-5.055,0-7.583C19.072,9.151,18.888,8.735,18.637,8.548z"/>
</g>
</svg>
