<?xml version="1.0" encoding="utf-8"?>
<!-- Generator: Adobe Illustrator 16.0.0, SVG Export Plug-In . SVG Version: 6.00 Build 0)  -->
<!DOCTYPE svg PUBLIC "-//W3C//DTD SVG 1.1//EN" "http://www.w3.org/Graphics/SVG/1.1/DTD/svg11.dtd">
<svg version="1.1" id="Layer_1" xmlns="http://www.w3.org/2000/svg" xmlns:xlink="http://www.w3.org/1999/xlink" x="0px" y="0px"
	 width="100%" height="100%" viewBox="0 0 25 25" enable-background="new 0 0 25 25" xml:space="preserve">
<g>
	<path fill="#6B6B6B" d="M7.422,17.453c0,0.275,0.225,0.5,0.5,0.5h1.656c0.275,0,0.5-0.225,0.5-0.5v-3.391H7.422V17.453z"/>
	<path fill="#6B6B6B" d="M9.578,11.391H7.922c-0.275,0-0.5,0.225-0.5,0.5v0.953h2.656v-0.953
		C10.078,11.616,9.853,11.391,9.578,11.391z"/>
	<path fill="#6B6B6B" d="M17.078,9.172h-1.656c-0.275,0-0.5,0.225-0.5,0.5v0.732h2.656V9.672
		C17.578,9.397,17.354,9.172,17.078,9.172z"/>
	<path fill="#6B6B6B" d="M14.922,17.453c0,0.275,0.225,0.5,0.5,0.5h1.656c0.275,0,0.5-0.225,0.5-0.5v-5.83h-2.656V17.453z"/>
	<path fill="#6B6B6B" d="M13.329,7.047h-1.657c-0.275,0-0.5,0.225-0.5,0.5v1.625h2.656V7.547
		C13.828,7.272,13.604,7.047,13.329,7.047z"/>
	<path fill="#6B6B6B" d="M11.172,17.453c0,0.275,0.225,0.5,0.5,0.5h1.657c0.275,0,0.5-0.225,0.5-0.5v-4.609h-2.656V17.453z"/>
	<rect x="11.172" y="10.391" fill="#6B6B6B" width="2.656" height="1.234"/>
</g>
</svg>
