<?xml version="1.0" encoding="utf-8"?>
<!-- Generator: Adobe Illustrator 16.0.0, SVG Export Plug-In . SVG Version: 6.00 Build 0)  -->
<!DOCTYPE svg PUBLIC "-//W3C//DTD SVG 1.1//EN" "http://www.w3.org/Graphics/SVG/1.1/DTD/svg11.dtd">
<svg version="1.1" id="Layer_1" xmlns="http://www.w3.org/2000/svg" xmlns:xlink="http://www.w3.org/1999/xlink" x="0px" y="0px"
	 width="100%" height="100%" viewBox="0 0 25 25" enable-background="new 0 0 25 25" xml:space="preserve">
<g>
	<path fill="#6B6B6B" d="M8.31,15.301H7.533c-0.275,0-0.5,0.225-0.5,0.5v0.616c0,0.274,0.225,0.5,0.5,0.5H8.31
		c0.275,0,0.5-0.226,0.5-0.5v-0.616C8.81,15.525,8.585,15.301,8.31,15.301z"/>
	<rect x="10.265" y="15.301" fill="#6B6B6B" width="7.703" height="1.616"/>
	<path fill="#6B6B6B" d="M8.31,11.692H7.533c-0.275,0-0.5,0.225-0.5,0.5v0.616c0,0.275,0.225,0.5,0.5,0.5H8.31
		c0.275,0,0.5-0.225,0.5-0.5v-0.616C8.81,11.917,8.585,11.692,8.31,11.692z"/>
	<rect x="10.265" y="11.692" fill="#6B6B6B" width="7.703" height="1.616"/>
	<path fill="#6B6B6B" d="M8.31,8.083H7.533c-0.275,0-0.5,0.225-0.5,0.5v0.616c0,0.275,0.225,0.5,0.5,0.5H8.31
		c0.275,0,0.5-0.225,0.5-0.5V8.583C8.81,8.308,8.585,8.083,8.31,8.083z"/>
	<rect x="10.265" y="8.083" fill="#6B6B6B" width="7.703" height="1.616"/>
</g>
</svg>
