<?xml version="1.0" encoding="utf-8"?>
<!-- Generator: Adobe Illustrator 16.0.0, SVG Export Plug-In . SVG Version: 6.00 Build 0)  -->
<!DOCTYPE svg PUBLIC "-//W3C//DTD SVG 1.1//EN" "http://www.w3.org/Graphics/SVG/1.1/DTD/svg11.dtd">
<svg version="1.1" id="Layer_1" xmlns="http://www.w3.org/2000/svg" xmlns:xlink="http://www.w3.org/1999/xlink" x="0px" y="0px"
	 width="25px" height="25px" viewBox="0 0 25 25" enable-background="new 0 0 25 25" xml:space="preserve">
<g>
	<path fill="#6B6B6B" d="M19.443,7.821l-0.342-0.342c-0.193-0.194-0.512-0.194-0.707,0l-5.757,5.758l1.048,1.049l0.604-0.604l0,0
		l5.154-5.154C19.639,8.334,19.639,8.016,19.443,7.821z"/>
	<polygon fill="#6B6B6B" points="12.25,13.597 11.39,15.647 13.316,14.663 	"/>
	<path fill="#6B6B6B" d="M16.887,16.362c0,0.238-0.193,0.431-0.431,0.431H8.73c-0.237,0-0.43-0.192-0.43-0.431V8.637
		c0-0.237,0.192-0.43,0.43-0.43h7.726c0.1,0,0.19,0.036,0.263,0.093l0.631-0.631c-0.235-0.217-0.549-0.352-0.894-0.352H8.73
		c-0.729,0-1.32,0.592-1.32,1.32v7.725c0,0.729,0.592,1.32,1.32,1.32h7.726c0.728,0,1.319-0.592,1.319-1.32v-5.311l-0.889,0.89
		V16.362z"/>
</g>
</svg>
