<?xml version="1.0" encoding="utf-8"?>
<!-- Generator: Adobe Illustrator 16.0.0, SVG Export Plug-In . SVG Version: 6.00 Build 0)  -->
<!DOCTYPE svg PUBLIC "-//W3C//DTD SVG 1.1//EN" "http://www.w3.org/Graphics/SVG/1.1/DTD/svg11.dtd">
<svg version="1.1" id="Layer_1" xmlns="http://www.w3.org/2000/svg" xmlns:xlink="http://www.w3.org/1999/xlink" x="0px" y="0px"
	 width="25px" height="25px" viewBox="0 0 25 25" enable-background="new 0 0 25 25" xml:space="preserve">
<g id="Isolation_Mode">
	<path fill="#6B6B6B" d="M17.877,11.81c-0.021-0.153-0.164-0.285-0.318-0.294l-0.682-0.037c-0.154-0.008-0.32-0.135-0.369-0.281
		l-0.252-0.61c-0.07-0.138-0.043-0.345,0.061-0.459l0.455-0.509c0.104-0.115,0.105-0.306,0.008-0.424l-0.975-0.974
		c-0.117-0.099-0.309-0.095-0.424,0.008l-0.51,0.455c-0.113,0.104-0.32,0.13-0.459,0.061l-0.609-0.252
		c-0.146-0.049-0.273-0.215-0.283-0.369l-0.037-0.682c-0.008-0.154-0.139-0.297-0.293-0.318c0,0-0.359-0.049-0.69-0.049
		c-0.331,0-0.69,0.049-0.69,0.049c-0.153,0.021-0.285,0.164-0.293,0.318l-0.037,0.682c-0.009,0.154-0.136,0.32-0.283,0.369
		l-0.609,0.252c-0.138,0.069-0.345,0.042-0.459-0.061L9.619,8.229C9.503,8.126,9.313,8.122,9.194,8.221L8.22,9.195
		c-0.1,0.119-0.096,0.31,0.007,0.424l0.456,0.509c0.104,0.115,0.131,0.321,0.061,0.459l-0.252,0.61
		c-0.048,0.146-0.215,0.273-0.369,0.281l-0.681,0.037c-0.155,0.009-0.298,0.141-0.318,0.294c0,0-0.049,0.36-0.049,0.69
		c0,0.33,0.049,0.689,0.049,0.689c0.021,0.153,0.163,0.285,0.318,0.294l0.681,0.037c0.155,0.009,0.321,0.136,0.369,0.282
		l0.252,0.609c0.07,0.138,0.043,0.345-0.061,0.459l-0.456,0.51c-0.103,0.114-0.106,0.305-0.007,0.424l0.974,0.975
		c0.119,0.098,0.31,0.095,0.425-0.008l0.509-0.455c0.114-0.104,0.321-0.131,0.459-0.062l0.609,0.253
		c0.147,0.048,0.274,0.215,0.283,0.369l0.037,0.682c0.008,0.153,0.14,0.298,0.293,0.318c0,0,0.359,0.048,0.69,0.048
		c0.331,0,0.69-0.048,0.69-0.048c0.154-0.021,0.285-0.165,0.293-0.318l0.037-0.682c0.01-0.154,0.137-0.32,0.283-0.369l0.609-0.253
		c0.139-0.068,0.346-0.041,0.459,0.062l0.51,0.455c0.115,0.103,0.305,0.106,0.424,0.008l0.975-0.975
		c0.098-0.119,0.096-0.31-0.008-0.424l-0.455-0.51c-0.104-0.114-0.131-0.321-0.061-0.459l0.252-0.609
		c0.049-0.146,0.215-0.273,0.369-0.282l0.682-0.037c0.154-0.009,0.297-0.141,0.318-0.294c0,0,0.049-0.359,0.049-0.689
		C17.926,12.17,17.877,11.81,17.877,11.81z M12.5,14.602c-1.162,0-2.104-0.941-2.104-2.102c0-1.161,0.941-2.103,2.104-2.103
		c1.161,0,2.104,0.941,2.104,2.103C14.604,13.661,13.66,14.602,12.5,14.602z"/>
</g>
</svg>
