<?xml version="1.0" encoding="utf-8"?>
<!-- Generator: Adobe Illustrator 16.0.0, SVG Export Plug-In . SVG Version: 6.00 Build 0)  -->
<!DOCTYPE svg PUBLIC "-//W3C//DTD SVG 1.1//EN" "http://www.w3.org/Graphics/SVG/1.1/DTD/svg11.dtd">
<svg version="1.1" id="Layer_1" xmlns="http://www.w3.org/2000/svg" xmlns:xlink="http://www.w3.org/1999/xlink" x="0px" y="0px"
	 width="100%" height="100%" viewBox="0 0 25 25" enable-background="new 0 0 25 25" xml:space="preserve">
<g>
	<g>
		<path fill="#6B6B6B" d="M17.992,10.284c-0.426-1.069-1.138-1.988-2.083-2.658c-2.688-1.907-6.426-1.269-8.332,1.419l1.608,1.14
			c1.278-1.803,3.783-2.229,5.583-0.952c0.518,0.367,0.93,0.846,1.22,1.397l-1.323,0.229l2.769,1.951l1.952-2.766L17.992,10.284z"/>
		<path fill="#6B6B6B" d="M10.135,15.767c-0.472-0.334-0.861-0.765-1.147-1.259L10.3,14.23l-2.837-1.846l-1.848,2.836L7,14.928
			c0.435,0.978,1.117,1.825,1.996,2.448c1.047,0.742,2.252,1.098,3.448,1.098c1.874,0,3.72-0.876,4.882-2.517l-1.608-1.141
			C14.442,16.617,11.938,17.044,10.135,15.767z"/>
	</g>
</g>
</svg>
